<?xml version="1.0" encoding="UTF-8"?>
<svg id="Layer_1" data-name="Layer 1" xmlns="http://www.w3.org/2000/svg" viewBox="0 0 449.28 448.2">
  <defs>
    <style>
      .cls-1 {
        fill: #0f172a;
      }

      .cls-1, .cls-2 {
        stroke: #000;
        stroke-miterlimit: 10;
      }

      .cls-2 {
        fill: #d4af37;
      }
    </style>
  </defs>
  <rect class="cls-1" x=".5" y=".5" width="448.28" height="447.2" rx="25" ry="25"/>
  <g>
    <path class="cls-2" d="M64.24,317.49l48.34-14.74,39.03-113.29,57.05,62.48,37.65-38.2-92.48-94.58s-6.98-4.88-13.35,0-76.24,198.32-76.24,198.32Z"/>
    <path class="cls-2" d="M248.1,303.64l32.1-36.75,19.05,22.65s7.9,6.45,6.45,1.5,7.45-65.35,7.45-65.35l42.35-59.3-18.5,169.1s-3.6,39.2-35.2,21.2-53.7-53.05-53.7-53.05Z"/>
    <path class="cls-2" d="M318.27,128.94l-34.4-5.2,107.6-56-51.2,86.8s-60,91.2-84.4,111.6c-24.4,20.4-21.6,24.8-80.4,65.2-58.8,40.4-93.73,36.1-93.3,39.7s169.3-84.1,236.1-242.1Z"/>
  </g>
</svg>