<?xml version="1.0" encoding="UTF-8"?>
<svg id="Layer_1" data-name="Layer 1" xmlns="http://www.w3.org/2000/svg" viewBox="0 0 329.36 305.16">
  <defs>
    <style>
      .cls-1 {
        fill: #d4af37;
        stroke: #000;
        stroke-miterlimit: 10;
      }
    </style>
  </defs>
  <path class="cls-1" d="M.81,251l48.34-14.74,39.03-113.29,57.05,62.48,37.65-38.2L90.4,52.67s-6.98-4.88-13.35,0S.81,251,.81,251Z"/>
  <path class="cls-1" d="M184.67,237.15l32.1-36.75,19.05,22.65s7.9,6.45,6.45,1.5,7.45-65.35,7.45-65.35l42.35-59.3-18.5,169.1s-3.6,39.2-35.2,21.2-53.7-53.05-53.7-53.05Z"/>
  <path class="cls-1" d="M254.84,62.45l-34.4-5.2L328.04,1.25l-51.2,86.8s-60,91.2-84.4,111.6c-24.4,20.4-21.6,24.8-80.4,65.2-58.8,40.4-93.73,36.1-93.3,39.7S188.04,220.45,254.84,62.45Z"/>
</svg>